<?xml version="1.0" encoding="UTF-8"?><svg id="Layer_1" xmlns="http://www.w3.org/2000/svg" viewBox="0 0 451.42 50.94"><defs><style>.cls-1,.cls-2{fill:#5aa429;}.cls-3,.cls-4{fill:#335d17;}.cls-2,.cls-4{fill-rule:evenodd;}</style></defs><g><path class="cls-1" d="m99.65,38.03c-3.81,0-6.7-1.02-8.64-3.05s-2.92-4.79-2.92-8.27c0-2.26.43-4.24,1.3-5.94.86-1.71,2.17-3.03,3.91-3.96,1.73-.95,3.84-1.41,6.35-1.41,1.44,0,2.76.16,3.93.5,1.17.33,2.14.76,2.89,1.29.06.06.15.09.28.09.16,0,.25-.09.25-.28v-1.45h1.95v6.82h-1.69c-.21-1.67-.91-2.9-2.12-3.68-1.2-.77-2.55-1.16-4.05-1.16-1.32,0-2.49.36-3.51,1.1-1.02.74-1.81,1.8-2.37,3.18-.57,1.38-.85,3.01-.85,4.91,0,2.93.51,5.2,1.57,6.79,1.05,1.6,2.54,2.4,4.46,2.4,1.19,0,2.19-.14,2.99-.43v-5.96c0-1.04-.68-1.57-2.01-1.57h-.48v-1.16h10.59v.95c-.86,0-1.44.16-1.72.49s-.42.96-.42,1.9v5.59c-1.61.95-3.17,1.57-4.64,1.87-1.48.3-3.17.46-5.08.46l.05-.02Z"/><path class="cls-1" d="m124.98,22.63c.84,0,1.57.16,2.2.49.63.32.94.88.94,1.65,0,.71-.19,1.25-.57,1.62-.38.37-.88.56-1.51.56-.34,0-.62-.06-.85-.19-.23-.12-.45-.29-.66-.5-.25-.21-.47-.36-.64-.46-.18-.09-.4-.14-.68-.14-.33,0-.75.22-1.26.64-.5.43-.95,1.03-1.35,1.8-.4.77-.64,1.65-.72,2.63v4.31c0,.86.57,1.3,1.7,1.3h.81v1.41h-11.14v-1.41h.97c1.11,0,1.66-.42,1.66-1.26v-8.09c0-.4-.11-.69-.3-.86-.2-.18-.46-.27-.77-.27-.13,0-.33.05-.6.13l-.32-1.19,6.79-2.1h1.16v3.65c.29-.85.74-1.57,1.34-2.12.6-.55,1.23-.95,1.92-1.19.68-.23,1.29-.36,1.83-.36l.04-.04Zm8.83,7.42v.32c0,1.72.38,3.12,1.15,4.21.77,1.09,1.86,1.62,3.28,1.62s2.46-.3,3.29-.91c.83-.61,1.38-1.6,1.65-2.96h1.45c-.17,1.66-.88,3.01-2.12,4.09s-2.96,1.6-5.13,1.6c-3.12,0-5.5-.65-7.15-1.95-1.65-1.31-2.47-3.23-2.47-5.76,0-1.53.36-2.87,1.08-4.04s1.75-2.07,3.12-2.71c1.37-.64,3-.96,4.91-.96,2.58,0,4.52.61,5.84,1.81s1.99,2.75,1.99,4.63v.97h-10.84l-.03.04Zm3.17-5.47c-.77,0-1.41.32-1.92.97-.5.65-.86,1.51-1.07,2.58h5.47c0-.86-.17-1.67-.52-2.42-.35-.76-1-1.13-1.97-1.13h0Zm15.37,5.47v.32c0,1.72.38,3.12,1.15,4.21.76,1.09,1.86,1.62,3.28,1.62s2.46-.3,3.29-.91c.82-.61,1.37-1.6,1.65-2.96h1.45c-.18,1.66-.88,3.01-2.13,4.09s-2.97,1.6-5.14,1.6c-3.13,0-5.52-.65-7.15-1.95-1.65-1.31-2.47-3.23-2.47-5.76,0-1.53.35-2.87,1.06-4.04s1.74-2.07,3.11-2.71c1.36-.64,2.99-.96,4.9-.96,2.57,0,4.52.61,5.84,1.81s1.97,2.75,1.97,4.63v.97h-10.84l.03.04Zm3.17-5.47c-.78,0-1.41.32-1.92.97-.5.65-.86,1.51-1.07,2.58h5.47c0-.86-.17-1.67-.52-2.42-.35-.76-1-1.13-1.96-1.13h0Zm31.65,11.72v1.41h-10.88v-1.41h.69c1.05,0,1.57-.42,1.57-1.26v-7.54c0-1.8-.76-2.7-2.29-2.7-.42,0-.87.16-1.37.47-.49.32-.92.83-1.27,1.56-.36.72-.53,1.64-.53,2.75v5.47c0,.84.51,1.26,1.57,1.26h.65v1.41h-10.84v-1.41h.97c1.13,0,1.69-.42,1.69-1.26v-8.08c0-.38-.11-.66-.32-.83-.21-.18-.48-.27-.82-.27-.19,0-.37.03-.57.1l-.32-1.19,6.75-2.11h1.19v2.36c.53-.79,1.27-1.39,2.26-1.79.98-.4,2.01-.6,3.07-.6,2.01,0,3.52.4,4.53,1.2,1.02.79,1.53,1.88,1.53,3.24v7.99c0,.84.57,1.26,1.69,1.26h.97l.06-.03Z"/><path class="cls-3" d="m192.25,36.27h1c.59,0,1.02-.1,1.29-.3.27-.2.41-.51.41-.93v-16.63c0-.84-.57-1.26-1.7-1.26h-1v-1.45h12.73c2.76,0,4.72.6,5.88,1.79,1.15,1.19,1.73,2.88,1.73,5.06s-.58,3.87-1.73,5.06c-1.16,1.19-3.12,1.79-5.88,1.79h-3.84v5.63c0,.42.13.73.41.93.27.2.7.3,1.29.3h1v1.45h-11.6v-1.45h.02Zm11.19-8.9c1.05,0,1.82-.4,2.31-1.21s.74-2.01.74-3.6-.25-2.79-.74-3.58c-.49-.8-1.26-1.19-2.3-1.19h-2.29v9.59h2.3-.02Zm14.34,10.66c-1.4,0-2.57-.29-3.51-.86-.92-.58-1.39-1.41-1.39-2.5,0-1.63.84-2.93,2.54-3.88,1.69-.95,4.22-1.66,7.6-2.12v-1.1c0-.93-.27-1.65-.82-2.12-.54-.47-1.29-.7-2.23-.7-.71,0-1.32.15-1.83.44s-.76.58-.76.85c0,.11.04.28.09.53.06.25.09.43.09.55,0,.42-.16.78-.49,1.08-.33.3-.79.44-1.43.44-.56,0-1.05-.19-1.47-.58-.42-.39-.63-.93-.63-1.65,0-1.17.68-2.09,2.03-2.75s3.26-.99,5.7-.99c1.51,0,2.85.2,4.03.61s2.09.98,2.73,1.71c.65.72.98,1.55.98,2.5v7.58c0,.42.08.71.22.89.15.18.37.26.67.26.39,0,.82-.08,1.32-.25v.98c-.46.37-1.06.67-1.8.86-.75.2-1.52.29-2.34.29-.92,0-1.69-.14-2.33-.42s-1.13-.82-1.51-1.61h-.06c-.64.71-1.45,1.23-2.4,1.55s-1.93.49-2.93.49l-.09-.09Zm2.96-2.14c.42,0,.84-.14,1.27-.41.43-.27.76-.65.99-1.13v-4.21c-1.59.54-2.69,1.18-3.3,1.9-.61.72-.91,1.45-.91,2.19,0,.52.18.93.53,1.23.35.29.83.44,1.44.44h-.02Zm11.07,7.48h.98c1.13,0,1.71-.41,1.71-1.22v-15.18c0-.42-.11-.71-.32-.88-.21-.17-.46-.25-.75-.25-.02,0-.22.04-.63.13l-.32-1.19,6.75-2.11h1.19v1.7c1.05-1.15,2.63-1.73,4.74-1.73s3.79.63,5.08,1.9c1.3,1.27,1.94,3.08,1.94,5.45,0,2.87-.69,4.93-2.07,6.18-1.38,1.25-3.4,1.87-6.06,1.87-.75,0-1.45-.12-2.1-.37-.64-.25-1.15-.6-1.51-1.04v5.5c0,.84.57,1.26,1.71,1.26h.82v1.44h-11.12v-1.45h-.05Zm11.42-7.36c2.06,0,3.08-1.96,3.08-5.88,0-1.89-.25-3.27-.75-4.15-.5-.88-1.31-1.32-2.42-1.32-.4,0-.81.14-1.23.41-.41.27-.76.65-1.05,1.15-.28.49-.42,1.08-.42,1.75v4.56c0,1,.25,1.84.74,2.5.49.66,1.18.99,2.06.99h-.01Zm16.44-5.97v.32c0,1.72.39,3.12,1.15,4.21.77,1.09,1.86,1.62,3.28,1.62s2.47-.3,3.28-.91c.83-.61,1.38-1.6,1.66-2.96h1.45c-.16,1.66-.88,3.01-2.12,4.09s-2.96,1.6-5.13,1.6c-3.12,0-5.5-.65-7.15-1.95-1.65-1.31-2.47-3.23-2.47-5.76,0-1.53.36-2.87,1.08-4.04s1.75-2.07,3.11-2.71c1.37-.64,3-.96,4.91-.96,2.58,0,4.52.61,5.84,1.81s1.99,2.75,1.99,4.63v.97h-10.84l-.04.04Zm3.18-5.47c-.77,0-1.41.32-1.92.97-.5.65-.85,1.51-1.06,2.58h5.47c0-.86-.16-1.67-.51-2.42-.34-.76-1-1.13-1.96-1.13h-.01Zm22.7-1.95c.84,0,1.58.16,2.21.49.63.32.95.88.95,1.65,0,.71-.19,1.25-.56,1.62-.37.37-.88.56-1.51.56-.33,0-.62-.06-.84-.19-.22-.12-.44-.29-.65-.5-.25-.21-.47-.36-.64-.46s-.4-.14-.68-.14c-.33,0-.75.22-1.25.64-.5.43-.96,1.03-1.36,1.8s-.63,1.65-.71,2.63v4.31c0,.86.56,1.3,1.69,1.3h.82v1.41h-11.14v-1.41h.98c1.11,0,1.67-.42,1.67-1.26v-8.09c0-.4-.09-.69-.29-.86s-.46-.27-.77-.27c-.13,0-.33.05-.6.13l-.32-1.19,6.79-2.1h1.16v3.65c.29-.85.74-1.57,1.33-2.12.6-.55,1.24-.95,1.92-1.19.69-.23,1.3-.36,1.85-.36l-.05-.04Zm11.98,13.64h1c.58,0,1.02-.1,1.3-.3s.41-.51.41-.93v-16.63c0-.84-.56-1.26-1.69-1.26h-1v-1.45h12.73c2.77,0,4.73.6,5.88,1.79,1.16,1.19,1.73,2.88,1.73,5.06s-.57,3.87-1.73,5.06c-1.15,1.19-3.11,1.79-5.88,1.79h-3.83v5.63c0,.42.14.73.41.93.28.2.7.3,1.3.3h1v1.45h-11.59v-1.45h-.02Zm11.19-8.9c1.05,0,1.82-.4,2.31-1.21s.74-2.01.74-3.6-.25-2.79-.74-3.58c-.49-.8-1.26-1.19-2.31-1.19h-2.29v9.59h2.3-.01Zm23.86-4.75c.84,0,1.58.16,2.21.49.63.32.95.88.95,1.65,0,.71-.19,1.25-.56,1.62-.37.37-.88.56-1.51.56-.33,0-.62-.06-.84-.19-.22-.12-.44-.29-.65-.5-.25-.21-.47-.36-.64-.46s-.4-.14-.68-.14c-.34,0-.75.22-1.25.64-.5.43-.95,1.03-1.34,1.8s-.64,1.65-.72,2.63v4.31c0,.86.57,1.3,1.69,1.3h.82v1.41h-11.12v-1.41h.97c1.11,0,1.67-.42,1.67-1.26v-8.09c0-.4-.09-.69-.29-.86s-.46-.27-.77-.27c-.13,0-.33.05-.6.13l-.32-1.19,6.79-2.1h1.17v3.65c.29-.85.74-1.57,1.33-2.12.6-.55,1.24-.95,1.92-1.19.68-.23,1.3-.36,1.85-.36l-.06-.04Zm13.58,15.4c-3.14,0-5.52-.65-7.13-1.95s-2.42-3.22-2.42-5.75.81-4.45,2.42-5.75c1.61-1.3,4-1.95,7.14-1.95s5.49.65,7.1,1.95c1.61,1.3,2.42,3.22,2.42,5.75s-.79,4.45-2.4,5.75c-1.6,1.3-3.97,1.95-7.12,1.95h-.02Zm0-2.01c1.1,0,1.95-.48,2.58-1.43.63-.95.95-2.37.95-4.26s-.32-3.27-.93-4.23c-.63-.96-1.48-1.44-2.58-1.44s-1.97.48-2.61,1.43-.93,2.36-.93,4.22.32,3.31.95,4.25,1.51,1.43,2.62,1.43l-.04.03Zm18.26,2.01c-4.73,0-7.1-2.68-7.1-8.05,0-2.34.65-4.16,1.95-5.43,1.3-1.27,2.99-1.92,5.06-1.92s3.67.56,4.72,1.67v-4.81c0-.72-.35-1.1-1.06-1.1-.13,0-.33.04-.63.09l-.28-1.19,6.75-2.1h1.17v19.55c0,.44.11.76.3.95s.57.28,1.11.28h.98v1.41l-7.23.67-.19-2.48c-.53.82-1.24,1.44-2.14,1.86s-2.03.63-3.39.63l-.02-.03Zm1.86-2.01c.89,0,1.58-.37,2.07-1.1.49-.74.75-1.61.75-2.64v-4.37c0-.65-.13-1.22-.41-1.71-.27-.49-.62-.87-1.04-1.13-.42-.26-.83-.39-1.23-.39-1.12,0-1.94.44-2.44,1.32-.5.88-.75,2.26-.75,4.15,0,3.92,1.03,5.88,3.08,5.88h-.04Zm31.88.13c.28,0,.72-.08,1.36-.25v.97c-.48.37-1.1.67-1.83.86s-1.53.29-2.37.29c-.96,0-1.85-.19-2.65-.57s-1.24-.99-1.3-1.86c-.5.79-1.25,1.39-2.24,1.8s-2.02.61-3.1.61c-2.03,0-3.55-.4-4.57-1.18s-1.53-1.86-1.53-3.23v-6.66c0-.42-.09-.71-.29-.89s-.44-.26-.74-.26c-.06,0-.27.05-.63.13l-.32-1.19,6.77-2.1h1.19v10.49c0,1.8.76,2.7,2.27,2.7.44,0,.91-.16,1.4-.48s.92-.83,1.27-1.54c.36-.71.54-1.64.54-2.77v-4.09c0-.42-.09-.71-.3-.89-.21-.16-.47-.25-.76-.25-.02,0-.23.04-.63.12l-.32-1.2,6.79-2.1h1.16v12.39c0,.75.29,1.13.89,1.13l-.05.02Zm11.98,1.89c-3.12,0-5.49-.65-7.12-1.95-1.62-1.3-2.43-3.22-2.43-5.75,0-1.49.35-2.81,1.05-3.98.7-1.16,1.74-2.07,3.11-2.73,1.38-.66,3.01-.99,4.92-.99,2.61,0,4.56.58,5.88,1.73l.28-1.73h1.36v6.1h-1.26c-.42-2.77-1.89-4.15-4.43-4.15-1.54,0-2.75.55-3.58,1.65-.83,1.1-1.25,2.48-1.25,4.13s.37,3.12,1.11,4.21c.75,1.09,1.83,1.62,3.26,1.62s2.45-.3,3.26-.91,1.36-1.6,1.62-2.96h1.45c-.16,1.66-.86,3.01-2.09,4.09s-2.92,1.6-5.11,1.6h-.04Zm22.63-4.17c-.21,2.79-2.06,4.18-5.56,4.18-2.07,0-3.7-.34-4.88-1.02-1.18-.68-1.78-1.88-1.78-3.6v-8.46h-1.92v-2.01h1.92v-2.8l4.78-1.54h1.19v4.34h4.31v2.01h-4.31v8.46c0,.9.19,1.59.55,2.08.37.48.92.71,1.66.71.68,0,1.25-.19,1.73-.55.48-.37.78-.97.88-1.81h1.45-.01Zm9.37,4.19c-1.27,0-2.38-.16-3.33-.47-.95-.32-1.74-.81-2.38-1.48l-.28,1.73h-1.36v-4.87h1.26c.28.88.82,1.61,1.62,2.2.81.59,1.73.88,2.75.88.92,0,1.67-.14,2.23-.41.57-.27.85-.72.85-1.35,0-.42-.23-.75-.7-.99-.47-.24-1.2-.51-2.21-.8-1.19-.36-2.2-.72-3-1.1-.81-.38-1.51-.92-2.09-1.64-.58-.71-.88-1.65-.88-2.8,0-1.36.55-2.42,1.65-3.17,1.1-.75,2.83-1.13,5.16-1.13,1.08,0,2.15.15,3.26.44,1.1.29,1.95.72,2.54,1.29l.28-1.73h1.34v4.84h-1.26c-.19-.82-.69-1.5-1.51-2.02-.82-.53-1.75-.79-2.79-.79-.84,0-1.52.13-2.02.39-.51.26-.77.63-.77,1.11,0,.43.23.77.71.99.47.22,1.23.48,2.28.77,1.22.32,2.23.63,3.05.97.82.33,1.52.86,2.1,1.58.6.72.89,1.68.89,2.87,0,1.67-.7,2.86-2.08,3.58-1.39.71-3.14,1.06-5.28,1.06l-.04.06Z"/></g><g><path class="cls-2" d="m78.24,37.33s-3.28-4.5-4.95-7.04c-1.67-2.54-7.53-12.05-10.58-14.37-3.05-2.32-6.31-3.99-11.9-6.39-5.59-2.4-15.12-3.05-20.49-2.9-5.37.15-20.47,2.18-28.31,8.93,5.37,5.66,10.6,11.03,12.56,13.29,1.96,2.25,12.99,13.28,23.3,17.42,10.31,4.14,12.63,4.28,17.57,3.92,4.94-.36,16.73-6.61,22.81-12.85h0Z"/><path class="cls-4" d="m74.22,29.78s.87-.48.67-2.6c-.19-2.12-5.31-10.25-8.82-14.67C62.57,8.09,50.22-1.31,30.85.62c-4.87.34-19.37,4.53-21.97,5.55-2.61,1.02-6.68,2.15-7.25,3.17,2.61,3.17,18.46,22.31,22.31,25.03,3.85,2.72,12.35,10.76,24.13,11.78,11.78,1.02,18.58-2.26,26.62-7.7-.68-3.51-1.33-4.57-1.33-4.57,0,0-2.09-2.02-6.33-4.06-4.25-2.05-12.06-5.39-16.34-6.49-4.29-1.1-15.71-4.06-17.31-4.06s-5.2,1.21-1.06,2.17c4.13.95,16.69,3.23,25.26,8.58,8.57,5.35,10.51,6.3,10.24,7.06-.27.76-5.39,3.38-8.35,3.95-2.95.57-6.83,2.88-16-.87-9.18-3.75-16.47-8.42-21.44-12.62-4.97-4.21-10.58-10.4-11.53-11.87-.95-1.48-2.58-3.98-2.2-5.5,1.82-.98,7.51-3.83,14.64-4.06,7.14-.23,13.62-1.06,19.73.08,6.11,1.14,11.28,3.33,16.83,6.73,5.56,3.41,7.69,6.58,9.25,9.1,1.56,2.52,4.73,6.93,5.48,7.8v-.03Z"/><path class="cls-3" d="m73.56,49.94c-.4,0-.77-.08-1.11-.23-.35-.15-.65-.35-.91-.61-.26-.26-.46-.56-.61-.91s-.23-.72-.23-1.11.08-.76.23-1.11.35-.65.61-.9.56-.46.91-.61.72-.23,1.11-.23.76.08,1.11.23.65.35.91.61.46.56.61.9c.15.35.22.72.22,1.11s-.07.77-.22,1.11c-.15.35-.35.65-.61.91-.26.26-.56.46-.91.61-.35.15-.72.23-1.11.23Zm0-.38c.35,0,.67-.06.96-.19.29-.13.55-.3.76-.53s.38-.49.5-.79c.12-.3.18-.63.18-.98s-.06-.67-.18-.97c-.12-.3-.29-.56-.5-.78s-.46-.4-.76-.52c-.29-.13-.61-.19-.96-.19s-.67.06-.96.19c-.3.13-.55.3-.76.52s-.38.48-.5.78c-.12.3-.18.62-.18.97s.06.68.18.98c.12.3.29.56.5.79s.47.4.76.53c.3.13.62.19.96.19Zm1.42-.89h-.47l-.91-1.47h-.72v1.47h-.39v-3.18h1.39c.42,0,.72.08.88.23.17.15.25.36.25.62,0,.16-.03.29-.08.4-.05.11-.12.2-.21.27-.09.07-.2.12-.32.15-.12.03-.25.05-.39.06l.96,1.47Zm-1.5-1.78h.36c.13,0,.25-.02.37-.05.11-.03.21-.08.28-.17.07-.08.11-.2.11-.36,0-.13-.02-.22-.07-.3-.05-.07-.11-.13-.18-.17-.08-.04-.16-.06-.26-.08-.1-.01-.19-.02-.29-.02h-.91v1.13h.59Z"/></g></svg>