<?xml version="1.0" encoding="UTF-8" standalone="no"?><!DOCTYPE svg PUBLIC "-//W3C//DTD SVG 1.1//EN" "http://www.w3.org/Graphics/SVG/1.1/DTD/svg11.dtd"><svg width="100%" height="100%" viewBox="0 0 324 212" version="1.1" xmlns="http://www.w3.org/2000/svg" xmlns:xlink="http://www.w3.org/1999/xlink" xml:space="preserve" xmlns:serif="http://www.serif.com/" style="fill-rule:evenodd;clip-rule:evenodd;stroke-linejoin:round;stroke-miterlimit:2;"><g><path d="M322.207,155.542c0,0 -13.667,-18.75 -20.625,-29.333c-6.958,-10.583 -31.375,-50.208 -44.083,-59.875c-12.708,-9.667 -26.292,-16.625 -49.583,-26.625c-23.292,-10 -63,-12.708 -85.375,-12.083c-22.375,0.625 -85.292,9.083 -117.958,37.208c22.375,23.583 44.167,45.958 52.333,55.375c8.167,9.375 54.125,55.333 97.083,72.583c42.958,17.25 52.625,17.833 73.208,16.333c20.583,-1.5 69.708,-27.542 95.042,-53.542l-0.042,-0.042Z" style="fill:#5aa429;"/><path d="M305.457,124.083c0,0 3.625,-2 2.792,-10.833c-0.792,-8.833 -22.125,-42.708 -36.75,-61.125c-14.583,-18.417 -66.042,-57.583 -146.75,-49.542c-20.292,1.417 -80.708,18.875 -91.542,23.125c-10.875,4.25 -27.833,8.958 -30.208,13.208c10.875,13.208 76.917,92.958 92.958,104.292c16.042,11.333 51.458,44.833 100.542,49.083c49.083,4.25 77.417,-9.417 110.917,-32.083c-2.833,-14.625 -5.542,-19.042 -5.542,-19.042c0,0 -8.708,-8.417 -26.375,-16.917c-17.708,-8.542 -50.25,-22.458 -68.083,-27.042c-17.875,-4.583 -65.458,-16.917 -72.125,-16.917c-6.667,0 -21.667,5.042 -4.417,9.042c17.208,3.958 69.542,13.458 105.25,35.75c35.708,22.292 43.792,26.25 42.667,29.417c-1.125,3.167 -22.458,14.083 -34.792,16.458c-12.292,2.375 -28.458,12 -66.667,-3.625c-38.25,-15.625 -68.625,-35.083 -89.333,-52.583c-20.708,-17.542 -44.083,-43.333 -48.042,-49.458c-3.958,-6.167 -10.75,-16.583 -9.167,-22.917c7.583,-4.083 31.292,-15.958 61,-16.917c29.75,-0.958 56.75,-4.417 82.208,0.333c25.458,4.75 47,13.875 70.125,28.042c23.167,14.208 32.042,27.417 38.542,37.917c6.5,10.5 19.708,28.875 22.833,32.5l0,-0.125l-0.042,-0.042Z" style="fill:#335d17;"/><path d="M302.707,208.083c-1.667,0 -3.208,-0.333 -4.625,-0.958c-1.458,-0.625 -2.708,-1.458 -3.792,-2.542c-1.083,-1.083 -1.917,-2.333 -2.542,-3.792c-0.625,-1.458 -0.958,-3 -0.958,-4.625c0,-1.625 0.333,-3.167 0.958,-4.625c0.625,-1.458 1.458,-2.708 2.542,-3.75c1.083,-1.042 2.333,-1.917 3.792,-2.542c1.458,-0.625 3,-0.958 4.625,-0.958c1.625,0 3.167,0.333 4.625,0.958c1.458,0.625 2.708,1.458 3.792,2.542c1.083,1.083 1.917,2.333 2.542,3.75c0.625,1.458 0.917,3 0.917,4.625c0,1.625 -0.292,3.208 -0.917,4.625c-0.625,1.458 -1.458,2.708 -2.542,3.792c-1.083,1.083 -2.333,1.917 -3.792,2.542c-1.458,0.625 -3,0.958 -4.625,0.958Zm0,-1.583c1.458,0 2.792,-0.25 4,-0.792c1.208,-0.542 2.292,-1.25 3.167,-2.208c0.875,-0.958 1.583,-2.042 2.083,-3.292c0.5,-1.25 0.75,-2.625 0.75,-4.083c0,-1.458 -0.25,-2.792 -0.75,-4.042c-0.5,-1.25 -1.208,-2.333 -2.083,-3.25c-0.875,-0.917 -1.917,-1.667 -3.167,-2.167c-1.208,-0.542 -2.542,-0.792 -4,-0.792c-1.458,0 -2.792,0.25 -4,0.792c-1.25,0.542 -2.292,1.25 -3.167,2.167c-0.875,0.917 -1.583,2 -2.083,3.25c-0.5,1.25 -0.75,2.583 -0.75,4.042c0,1.458 0.25,2.833 0.75,4.083c0.5,1.25 1.208,2.333 2.083,3.292c0.875,0.958 1.958,1.667 3.167,2.208c1.25,0.542 2.583,0.792 4,0.792Zm5.917,-3.708l-1.958,0l-3.792,-6.125l-3,0l0,6.125l-1.625,0l0,-13.25l5.792,0c1.75,0 3,0.333 3.667,0.958c0.708,0.625 1.042,1.5 1.042,2.583c0,0.667 -0.125,1.208 -0.333,1.667c-0.208,0.458 -0.5,0.833 -0.875,1.125c-0.375,0.292 -0.833,0.5 -1.333,0.625c-0.5,0.125 -1.042,0.208 -1.625,0.25l4,6.125l0.042,-0.083Zm-6.25,-7.417l1.5,0c0.542,0 1.042,-0.083 1.542,-0.208c0.458,-0.125 0.875,-0.333 1.167,-0.708c0.292,-0.333 0.458,-0.833 0.458,-1.5c0,-0.542 -0.083,-0.917 -0.292,-1.25c-0.208,-0.292 -0.458,-0.542 -0.75,-0.708c-0.333,-0.167 -0.667,-0.25 -1.083,-0.333c-0.417,-0.042 -0.792,-0.083 -1.208,-0.083l-3.792,0l0,4.708l2.458,0l0,0.083Z" style="fill:#335d17;fill-rule:nonzero;"/></g></svg>